<?xml version="1.0" standalone="no"?>
<!DOCTYPE svg PUBLIC "-//W3C//DTD SVG 20010904//EN"
 "http://www.w3.org/TR/2001/REC-SVG-20010904/DTD/svg10.dtd">
<svg version="1.0" xmlns="http://www.w3.org/2000/svg"
 width="408.000000pt" height="566.000000pt" viewBox="0 0 408.000000 566.000000"
 preserveAspectRatio="xMidYMid meet">

<g transform="translate(0.000000,566.000000) scale(0.100000,-0.100000)"
fill="#000000" stroke="none">
<path d="M0 2930 l0 -1430 900 0 900 0 0 36 0 36 -417 -3 -418 -2 2 89 c10
473 18 1307 18 1888 l0 709 528 -7 527 -7 0 39 0 39 -247 6 c-137 4 -373 7
-526 7 -238 0 -278 2 -283 15 -5 13 -41 15 -237 15 -200 0 -233 -2 -249 -17
-17 -15 -19 -15 -36 0 -16 15 -48 17 -240 17 l-222 0 0 -1430z m534 834 c9 -3
16 -12 16 -18 0 -18 -21 -35 -36 -29 -15 5 -19 35 -7 46 8 8 8 8 27 1z m-386
-161 c-4 -22 -22 -20 -26 1 -2 10 3 16 13 16 10 0 15 -7 13 -17z m782 -83 c0
-11 -7 -20 -15 -20 -8 0 -15 9 -15 20 0 11 7 20 15 20 8 0 15 -9 15 -20z
m-393 -36 c8 -21 -13 -42 -28 -27 -13 13 -5 43 11 43 6 0 13 -7 17 -16z m251
-92 c2 -7 -3 -12 -12 -12 -9 0 -16 7 -16 16 0 17 22 14 28 -4z m-78 -48 c0
-16 -16 -19 -25 -4 -8 13 4 32 16 25 5 -4 9 -13 9 -21z m-70 -13 c0 -6 -4 -13
-10 -16 -5 -3 -10 1 -10 9 0 9 5 16 10 16 6 0 10 -4 10 -9z m52 -96 c0 -5 -5
-11 -11 -13 -6 -2 -11 4 -11 13 0 9 5 15 11 13 6 -2 11 -8 11 -13z m-401 -82
c13 -16 12 -17 -3 -4 -10 7 -18 15 -18 17 0 8 8 3 21 -13z m109 -19 c0 -8 -7
-14 -15 -14 -15 0 -21 21 -9 33 10 9 24 -2 24 -19z m402 -30 c-3 -19 -10 -24
-26 -22 -29 4 -26 31 4 39 14 4 26 7 26 8 1 1 -1 -10 -4 -25z m-318 7 c3 -5
-1 -14 -8 -20 -16 -13 -32 2 -21 19 8 12 22 13 29 1z m96 -26 c0 -8 -7 -15
-15 -15 -8 0 -15 7 -15 15 0 8 7 15 15 15 8 0 15 -7 15 -15z m-432 -13 c6 -18
-15 -14 -22 4 -4 10 -1 14 6 12 6 -2 14 -10 16 -16z m352 -112 c-11 -21 -40
-28 -40 -10 0 8 27 25 48 29 1 1 -2 -8 -8 -19z m246 -7 c-10 -10 -19 5 -10 18
6 11 8 11 12 0 2 -7 1 -15 -2 -18z m-426 -18 l25 -30 -27 24 c-16 14 -28 29
-28 34 0 6 1 8 3 6 1 -2 13 -17 27 -34z m-126 17 c2 -4 1 -14 -4 -22 -7 -11
-12 -12 -21 -3 -6 6 -8 16 -5 22 8 13 23 14 30 3z m143 -249 c-2 -38 -3 -7 -3
67 0 74 1 105 3 68 2 -38 2 -98 0 -135z m321 170 c-4 -22 -22 -20 -26 1 -2 10
3 16 13 16 10 0 15 -7 13 -17z m-448 -7 c0 -2 -8 -10 -17 -17 -16 -13 -17 -12
-4 4 13 16 21 21 21 13z m-125 -36 c-5 -8 -11 -8 -17 -2 -6 6 -7 16 -3 22 5 8
11 8 17 2 6 -6 7 -16 3 -22z m455 26 c0 -2 -8 -10 -17 -17 -16 -13 -17 -12 -4
4 13 16 21 21 21 13z m-118 -39 c-12 -13 -22 -29 -22 -35 0 -15 -26 -16 -35
-2 -3 6 4 14 17 19 13 5 30 16 37 25 7 9 16 16 19 16 3 0 -4 -10 -16 -23z
m343 -37 c-5 -8 -11 -8 -17 -2 -6 6 -7 16 -3 22 5 8 11 8 17 2 6 -6 7 -16 3
-22z m-74 -17 c13 -16 12 -17 -3 -4 -10 7 -18 15 -18 17 0 8 8 3 21 -13z
m-113 -21 c2 -7 -6 -12 -17 -12 -21 0 -27 11 -14 24 9 9 26 2 31 -12z m-85
-14 c-30 -34 -35 -56 -15 -68 15 -8 15 -11 2 -20 -22 -14 -30 -12 -30 8 0 10
-5 23 -11 29 -13 13 -4 33 15 33 7 0 21 9 31 20 10 11 20 20 23 20 3 0 -4 -10
-15 -22z m172 -28 c21 -22 37 -40 34 -40 -3 0 -23 18 -44 40 -21 22 -37 40
-34 40 3 0 23 -18 44 -40z m105 -14 c-13 -13 -35 7 -25 24 5 8 11 8 21 -1 10
-8 12 -15 4 -23z m-160 9 c0 -8 -7 -15 -15 -15 -16 0 -20 12 -8 23 11 12 23 8
23 -8z m35 -45 c10 -11 16 -20 13 -20 -3 0 -13 9 -23 20 -10 11 -16 20 -13 20
3 0 13 -9 23 -20z m-69 -32 l29 -33 -32 29 c-31 28 -38 36 -30 36 2 0 16 -15
33 -32z m-226 -14 c0 -14 -21 -19 -33 -7 -9 9 13 34 24 27 5 -3 9 -12 9 -20z
m-85 -44 c0 -7 -6 -15 -12 -17 -8 -3 -13 4 -13 17 0 13 5 20 13 18 6 -3 12
-11 12 -18z m153 11 c10 -6 10 -10 -3 -21 -18 -15 -42 0 -31 19 8 13 16 14 34
2z m363 -8 c13 -16 12 -17 -3 -4 -10 7 -18 15 -18 17 0 8 8 3 21 -13z m-206
-53 c33 -33 57 -60 54 -60 -2 0 -31 27 -64 60 -33 33 -57 60 -54 60 2 0 31
-27 64 -60z m75 8 c19 -27 20 -30 3 -15 -11 9 -25 17 -31 17 -7 0 -12 7 -12
15 0 24 14 18 40 -17z m-155 -105 c-43 -5 -81 -33 -96 -71 -5 -13 -14 -22 -21
-20 -22 8 -20 28 4 37 13 5 34 21 47 35 19 21 33 26 65 24 l41 -1 -40 -4z
m290 -63 c3 -6 -1 -13 -10 -16 -19 -8 -30 0 -20 15 8 14 22 14 30 1z m-215
-80 c0 -12 -28 -25 -36 -17 -9 9 6 27 22 27 8 0 14 -5 14 -10z m180 -15 c0 -8
-7 -15 -15 -15 -8 0 -15 7 -15 15 0 8 7 15 15 15 8 0 15 -7 15 -15z m-144 -47
l29 -33 -32 29 c-18 17 -33 31 -33 33 0 8 8 1 36 -29z m67 1 c-17 -17 -37 -1
-22 17 8 10 15 12 23 4 7 -7 7 -13 -1 -21z m-45 -81 c-6 -18 -28 -21 -28 -4 0
9 7 16 16 16 9 0 14 -5 12 -12z m29 -74 c8 -21 -13 -42 -28 -27 -13 13 -5 43
11 43 6 0 13 -7 17 -16z m-146 -30 c10 -13 10 -17 -2 -25 -18 -12 -26 -11 -34
1 -8 13 1 40 13 40 5 0 15 -7 23 -16z m-221 -19 c0 -8 -4 -15 -9 -15 -13 0
-22 16 -14 24 11 11 23 6 23 -9z m-89 -88 c-1 -12 -15 -9 -19 4 -3 6 1 10 8 8
6 -3 11 -8 11 -12z m81 -22 c0 -5 -5 -11 -11 -13 -6 -2 -11 4 -11 13 0 9 5 15
11 13 6 -2 11 -8 11 -13z m278 -16 c0 -5 -7 -9 -15 -9 -15 0 -20 12 -9 23 8 8
24 -1 24 -14z m-105 -89 c-5 -8 -11 -8 -17 -2 -6 6 -7 16 -3 22 5 8 11 8 17 2
6 -6 7 -16 3 -22z m-165 6 c0 -3 -4 -8 -10 -11 -5 -3 -10 -1 -10 4 0 6 5 11
10 11 6 0 10 -2 10 -4z m418 -167 c-2 -6 -8 -10 -13 -10 -5 0 -11 4 -13 10 -2
6 4 11 13 11 9 0 15 -5 13 -11z"/>
<path d="M440 2690 c0 -5 5 -10 10 -10 6 0 10 5 10 10 0 6 -4 10 -10 10 -5 0
-10 -4 -10 -10z"/>
<path d="M390 2560 c0 -5 5 -10 10 -10 6 0 10 5 10 10 0 6 -4 10 -10 10 -5 0
-10 -4 -10 -10z"/>
<path d="M370 2340 c0 -5 5 -10 10 -10 6 0 10 5 10 10 0 6 -4 10 -10 10 -5 0
-10 -4 -10 -10z"/>
<path d="M3523 4323 l-383 -3 0 -38 0 -37 467 3 468 3 3 40 3 39 -88 -2 c-48
-2 -260 -4 -470 -5z"/>
<path d="M2062 4283 l3 -38 523 -3 522 -2 0 24 c0 13 3 31 6 40 6 14 -45 16
-526 16 l-531 0 3 -37z"/>
<path d="M1370 4215 c0 -5 5 -17 10 -25 5 -8 10 -10 10 -5 0 6 -5 17 -10 25
-5 8 -10 11 -10 5z"/>
<path d="M1506 4195 c24 -39 24 -40 24 -28 0 6 -9 21 -21 34 l-20 24 17 -30z"/>
<path d="M1557 4199 c4 -13 8 -18 11 -10 2 7 -1 18 -6 23 -8 8 -9 4 -5 -13z"/>
<path d="M2335 4200 c-10 -11 -16 -22 -14 -24 2 -2 12 7 22 20 22 29 17 32 -8
4z"/>
<path d="M1910 4189 c0 -5 5 -7 10 -4 6 3 10 8 10 11 0 2 -4 4 -10 4 -5 0 -10
-5 -10 -11z"/>
<path d="M1966 4187 c3 -10 9 -15 12 -12 3 3 0 11 -7 18 -10 9 -11 8 -5 -6z"/>
<path d="M1299 3912 c-44 -22 -58 -61 -35 -96 18 -29 59 -34 89 -12 24 18 22
29 -4 16 -28 -16 -49 4 -49 46 0 35 8 42 26 24 11 -11 44 -4 44 9 0 3 -8 11
-19 18 -15 9 -26 8 -52 -5z"/>
<path d="M1962 3922 c-7 -5 -10 -16 -7 -24 4 -10 -1 -17 -14 -21 -11 -3 -26
-17 -33 -32 -11 -24 -10 -29 11 -46 13 -10 28 -16 34 -12 6 4 8 -2 5 -15 -5
-19 -2 -22 24 -22 18 0 27 4 23 10 -4 6 5 20 20 32 32 25 31 68 -2 83 -12 5
-23 18 -25 29 -3 22 -17 29 -36 18z m-2 -88 c0 -14 -4 -23 -10 -19 -5 3 -10
15 -10 26 0 10 5 19 10 19 6 0 10 -12 10 -26z m47 -21 c-3 -10 -5 -2 -5 17 0
19 2 27 5 18 2 -10 2 -26 0 -35z"/>
<path d="M1416 3869 c-28 -22 -33 -48 -14 -67 17 -17 53 -15 69 4 12 15 11 16
-8 10 -31 -10 -39 12 -9 24 29 11 32 20 14 38 -16 16 -21 15 -52 -9z"/>
<path d="M1518 3879 c-19 -11 -11 -129 8 -129 8 0 17 7 21 15 3 9 18 22 34 31
22 11 29 22 29 44 0 16 -5 32 -11 35 -15 10 -66 12 -81 4z m52 -45 c0 -14 -4
-23 -10 -19 -5 3 -10 15 -10 26 0 10 5 19 10 19 6 0 10 -12 10 -26z"/>
<path d="M3788 3878 c-16 -5 -28 -14 -28 -18 0 -14 18 -21 25 -10 11 18 23 10
23 -16 0 -16 -3 -22 -8 -14 -10 16 -43 5 -38 -13 3 -7 25 -13 51 -15 l47 -2
-6 32 c-9 48 -32 68 -66 56z"/>
<path d="M1630 3867 c0 -23 12 -27 26 -9 12 15 13 13 14 -20 0 -21 -4 -38 -10
-38 -5 0 -10 -4 -10 -8 0 -4 15 -6 34 -4 33 4 34 5 25 35 -8 29 -1 56 8 29 6
-15 23 -6 23 14 0 10 -14 14 -55 14 -39 0 -55 -4 -55 -13z"/>
<path d="M1759 3871 c10 -6 12 -21 9 -48 -5 -37 -4 -39 17 -35 13 2 26 14 30
25 l8 22 4 -22 c3 -16 12 -23 26 -23 19 0 22 5 22 45 0 42 -2 45 -27 45 -19 0
-26 -4 -22 -14 3 -8 1 -17 -5 -21 -7 -3 -11 2 -11 14 0 17 -6 21 -32 21 -23 0
-29 -3 -19 -9z"/>
<path d="M2080 3865 c7 -9 10 -29 7 -49 -5 -30 -3 -33 19 -28 13 2 24 10 24
18 0 7 5 16 12 20 7 5 9 1 6 -13 -5 -17 0 -22 21 -25 25 -4 26 -2 26 44 0 45
-1 48 -27 48 -19 0 -26 -4 -22 -14 3 -8 1 -17 -5 -21 -7 -3 -11 2 -11 14 0 17
-6 21 -31 21 -27 0 -30 -2 -19 -15z"/>
<path d="M2228 3868 c15 -15 16 -60 1 -75 -9 -9 15 -11 61 -3 3 0 -2 5 -10 10
-9 6 -10 10 -3 10 7 0 16 -7 21 -17 6 -10 16 -14 27 -9 16 6 16 8 1 31 -20 30
-20 39 -1 31 10 -4 15 1 15 14 0 27 -37 26 -45 0 -3 -11 -11 -20 -16 -20 -13
0 -11 14 3 28 9 9 3 12 -27 12 -30 0 -36 -3 -27 -12z"/>
<path d="M2388 3873 c-10 -2 -18 -11 -18 -19 0 -17 27 -19 32 -2 3 9 6 9 12 0
4 -7 -3 -16 -19 -24 -35 -16 -29 -42 10 -41 64 1 70 2 57 15 -7 7 -12 24 -12
39 0 15 -7 29 -16 33 -17 6 -19 6 -46 -1z"/>
<path d="M2490 3859 c0 -18 2 -19 15 -9 13 11 15 8 15 -19 0 -17 -4 -31 -10
-31 -5 0 -10 -4 -10 -8 0 -4 16 -8 35 -8 29 0 34 3 30 18 -3 10 -8 27 -11 38
-3 11 -1 20 5 20 6 0 11 -4 11 -10 0 -5 5 -10 10 -10 6 0 10 9 10 20 0 17 -7
20 -50 20 -44 0 -50 -2 -50 -21z"/>
<path d="M2690 3872 c0 -4 4 -12 9 -17 19 -22 31 -78 20 -92 -7 -7 -8 -17 -4
-21 4 -4 12 1 19 12 6 10 23 34 39 53 30 39 35 73 12 73 -10 0 -15 -10 -15
-30 0 -16 -4 -30 -10 -30 -9 0 -14 17 -13 48 1 7 -11 12 -28 12 -16 0 -29 -4
-29 -8z"/>
<path d="M2819 3863 c5 -10 12 -26 15 -36 4 -13 12 -16 31 -11 26 6 33 -4 14
-23 -7 -7 -1 -10 19 -9 28 1 30 3 25 33 -3 19 0 39 7 48 11 13 4 15 -54 15
-60 0 -65 -2 -57 -17z m63 -25 c-9 -9 -12 -7 -12 12 0 19 3 21 12 12 9 -9 9
-15 0 -24z"/>
<path d="M2983 3870 c-15 -6 -21 -15 -17 -25 5 -12 10 -13 17 -6 14 14 27 14
27 1 0 -5 -11 -12 -25 -16 -42 -10 -26 -36 24 -39 41 -2 48 4 43 38 -8 54 -24
65 -69 47z"/>
<path d="M3100 3860 c-24 -24 -25 -43 -4 -64 19 -19 33 -20 57 -2 23 18 22 29
-2 17 -23 -13 -31 -5 -31 27 0 19 3 22 13 14 15 -13 42 1 33 17 -11 17 -44 13
-66 -9z"/>
<path d="M3190 3860 c0 -25 8 -25 27 -2 13 15 14 14 8 -13 -3 -16 -8 -37 -11
-45 -3 -13 3 -15 33 -11 21 2 32 6 26 8 -7 3 -13 21 -13 41 0 34 1 35 15 16
14 -19 14 -18 15 4 0 20 -5 22 -50 22 -43 0 -50 -3 -50 -20z"/>
<path d="M3320 3865 c7 -8 10 -28 8 -45 -4 -26 -1 -30 19 -30 16 0 23 6 23 20
0 11 5 20 11 20 6 0 9 -9 6 -20 -4 -16 0 -20 21 -20 25 0 27 3 27 45 l0 45
-64 0 c-55 0 -62 -2 -51 -15z m70 -10 c0 -8 -4 -15 -10 -15 -5 0 -10 7 -10 15
0 8 5 15 10 15 6 0 10 -7 10 -15z"/>
<path d="M3468 3868 c16 -16 15 -65 0 -71 -7 -3 2 -6 20 -6 17 -1 31 2 31 7
-3 18 2 32 12 32 6 0 9 -9 6 -20 -4 -17 0 -20 26 -20 22 0 28 3 20 11 -6 6 -8
23 -3 45 8 33 7 34 -21 34 -16 0 -28 -3 -28 -7 3 -19 -2 -33 -12 -33 -6 0 -8
9 -4 20 5 17 2 20 -26 20 -26 0 -30 -3 -21 -12z"/>
<path d="M3618 3868 c16 -16 15 -65 0 -71 -7 -3 4 -6 26 -6 33 -1 37 1 26 14
-7 8 -9 15 -5 15 4 0 14 -9 23 -20 12 -14 21 -17 32 -11 12 9 12 12 -3 29 -23
25 -22 41 3 35 14 -4 20 0 20 11 0 24 -47 21 -55 -4 -3 -11 -11 -20 -16 -20
-13 0 -11 14 3 28 9 9 3 12 -27 12 -30 0 -36 -3 -27 -12z"/>
<path d="M1927 3696 c-22 -23 -16 -60 11 -64 28 -4 42 26 19 42 -14 11 -14 13
1 23 16 11 16 12 0 12 -9 1 -23 -5 -31 -13z m23 -42 c0 -8 -5 -12 -10 -9 -6 4
-8 11 -5 16 9 14 15 11 15 -7z"/>
<path d="M2425 3690 c3 -5 10 -10 16 -10 5 0 9 5 9 10 0 6 -7 10 -16 10 -8 0
-12 -4 -9 -10z"/>
<path d="M1852 3668 c-15 -18 1 -41 24 -36 23 4 26 41 3 46 -9 1 -21 -3 -27
-10z m25 -20 c-3 -8 -6 -5 -6 6 -1 11 2 17 5 13 3 -3 4 -12 1 -19z"/>
<path d="M2009 3671 c8 -5 11 -16 8 -25 -4 -10 -1 -16 8 -16 9 0 15 10 15 25
0 19 -5 25 -22 25 -17 0 -20 -3 -9 -9z"/>
<path d="M2064 3669 c-5 -9 -2 -10 9 -6 10 3 17 2 17 -3 0 -6 -7 -10 -15 -10
-8 0 -15 -4 -15 -10 0 -5 12 -10 26 -10 21 0 25 4 22 22 -3 25 -32 36 -44 17z"/>
<path d="M2137 3673 c-16 -16 -6 -43 16 -43 18 0 19 2 7 11 -11 8 -12 12 -2
16 6 2 12 9 12 14 0 10 -23 12 -33 2z"/>
<path d="M2190 3670 c0 -5 5 -10 11 -10 6 0 9 -7 5 -15 -3 -9 0 -15 9 -15 8 0
15 7 15 15 0 8 5 15 11 15 5 0 7 5 4 10 -3 6 -17 10 -31 10 -13 0 -24 -4 -24
-10z"/>
<path d="M2260 3655 c0 -21 5 -25 30 -25 25 0 30 4 30 25 0 21 -5 25 -30 25
-25 0 -30 -4 -30 -25z"/>
<path d="M2347 3674 c-4 -4 -7 -16 -7 -26 0 -14 6 -19 23 -16 14 2 22 10 22
23 0 20 -25 32 -38 19z m20 -26 c-3 -8 -6 -5 -6 6 -1 11 2 17 5 13 3 -3 4 -12
1 -19z"/>
<path d="M2410 3655 c0 -28 9 -31 29 -12 11 10 13 10 7 0 -4 -8 -1 -13 8 -13
10 0 16 9 16 25 0 27 -9 32 -28 13 -9 -9 -12 -9 -12 0 0 7 -4 12 -10 12 -5 0
-10 -11 -10 -25z"/>
<path d="M2540 3665 c-9 -11 -10 -19 -3 -26 17 -17 48 -6 48 16 0 25 -28 31
-45 10z m30 -15 c0 -5 -2 -10 -4 -10 -3 0 -8 5 -11 10 -3 6 -1 10 4 10 6 0 11
-4 11 -10z"/>
<path d="M2629 3671 c8 -5 11 -16 8 -25 -4 -10 -1 -16 8 -16 9 0 15 10 15 25
0 19 -5 25 -22 25 -17 0 -20 -3 -9 -9z"/>
<path d="M2685 3655 c0 -26 20 -34 28 -12 4 10 6 10 6 0 1 -7 7 -13 15 -13 9
0 12 8 8 25 -5 27 -17 33 -25 13 -4 -10 -6 -10 -6 0 -2 24 -26 12 -26 -13z"/>
<path d="M2765 3655 c0 -22 4 -25 38 -25 33 0 37 3 37 25 0 26 -24 35 -34 13
-5 -10 -7 -10 -12 0 -10 21 -29 13 -29 -13z"/>
<path d="M2860 3655 c0 -21 5 -25 30 -25 25 0 30 4 30 25 0 21 -5 25 -30 25
-25 0 -30 -4 -30 -25z m40 0 c0 -8 -4 -15 -10 -15 -5 0 -10 7 -10 15 0 8 5 15
10 15 6 0 10 -7 10 -15z"/>
<path d="M2940 3655 c0 -26 24 -35 33 -12 4 10 6 10 6 0 2 -24 21 -13 21 12 0
26 -14 34 -24 13 -5 -10 -7 -10 -12 0 -10 21 -24 13 -24 -13z"/>
<path d="M3026 3671 c-4 -5 2 -12 11 -14 17 -4 17 -5 1 -6 -28 -2 -21 -21 8
-21 21 0 25 4 22 22 -3 24 -32 36 -42 19z"/>
<path d="M3108 3673 c6 -2 12 -13 12 -23 0 -9 6 -22 13 -29 11 -8 13 -4 13 24
-1 31 -4 35 -26 34 -14 0 -19 -3 -12 -6z"/>
<path d="M3170 3655 c0 -20 5 -25 25 -25 27 0 34 17 10 26 -8 4 -12 10 -9 15
3 5 -2 9 -10 9 -10 0 -16 -9 -16 -25z"/>
<path d="M3230 3655 c0 -14 6 -25 13 -25 6 0 12 11 12 25 0 14 -6 25 -12 25
-7 0 -13 -11 -13 -25z"/>
<path d="M1985 3640 c-3 -5 -1 -10 4 -10 6 0 11 5 11 10 0 6 -2 10 -4 10 -3 0
-8 -4 -11 -10z"/>
<path d="M2605 3640 c-3 -5 -1 -10 4 -10 6 0 11 5 11 10 0 6 -2 10 -4 10 -3 0
-8 -4 -11 -10z"/>
<path d="M3090 3624 c0 -8 5 -12 10 -9 6 3 10 10 10 16 0 5 -4 9 -10 9 -5 0
-10 -7 -10 -16z"/>
<path d="M1354 3256 c-18 -6 -29 -16 -27 -24 6 -17 -23 -101 -44 -124 -15 -17
-15 -18 15 -18 18 0 32 5 32 10 0 6 -5 10 -11 10 -5 0 -7 5 -4 10 7 12 65 14
65 2 0 -4 -5 -13 -12 -20 -9 -9 0 -12 40 -12 51 0 61 6 44 26 -5 5 -19 38 -32
74 -13 36 -26 68 -29 71 -3 4 -20 1 -37 -5z m9 -86 c4 -15 0 -20 -15 -20 -14
0 -18 5 -14 16 3 9 6 20 6 25 0 17 17 1 23 -21z"/>
<path d="M1792 3262 c-7 -5 -10 -16 -6 -25 5 -13 10 -14 26 -6 13 7 23 7 32 0
18 -15 45 14 28 31 -8 8 -16 7 -28 -3 -13 -11 -18 -11 -21 -1 -5 14 -13 15
-31 4z"/>
<path d="M2839 3253 c-9 -2 -16 -15 -16 -31 0 -15 -11 -51 -25 -79 l-25 -53
31 1 c17 0 25 3 19 6 -25 9 -14 33 15 33 35 0 45 -9 31 -27 -9 -10 -3 -13 35
-13 41 0 59 11 38 23 -4 3 -18 37 -32 76 -24 71 -30 75 -71 64z m15 -79 c9
-23 8 -24 -13 -24 -14 0 -18 5 -14 20 6 24 19 26 27 4z"/>
<path d="M3710 3250 c0 -5 8 -13 17 -19 19 -10 53 3 53 21 0 6 -6 5 -17 -3
-13 -11 -17 -11 -20 -1 -5 14 -33 17 -33 2z"/>
<path d="M1493 3207 c-22 -10 -32 -27 -15 -27 4 0 6 -31 4 -70 -3 -48 0 -70 8
-70 19 0 50 20 50 33 0 7 14 18 31 26 52 23 61 88 14 109 -16 7 -26 7 -33 0
-8 -8 -15 -8 -24 -1 -9 7 -20 7 -35 0z m67 -58 c0 -16 -4 -29 -10 -29 -5 0
-10 16 -10 36 0 21 4 33 10 29 6 -3 10 -19 10 -36z"/>
<path d="M1820 3213 c-8 -3 -25 -15 -37 -26 -56 -50 1 -122 68 -87 27 15 24
26 -8 25 -37 0 -40 22 -4 30 39 8 44 17 25 43 -16 23 -19 24 -44 15z m2 -45
c-7 -7 -12 -8 -12 -2 0 14 12 26 19 19 2 -3 -1 -11 -7 -17z"/>
<path d="M2130 3202 c-45 -22 -61 -63 -35 -92 21 -23 62 -26 88 -6 25 19 21
26 -13 20 -23 -5 -30 -3 -30 9 0 9 12 18 30 22 33 7 38 25 14 49 -19 19 -12
19 -54 -2z m25 -21 c3 -5 1 -12 -5 -16 -5 -3 -10 1 -10 9 0 18 6 21 15 7z"/>
<path d="M1622 3188 c4 -30 26 -34 31 -6 2 13 5 3 6 -22 0 -26 -4 -51 -11 -58
-9 -9 -2 -12 35 -12 26 0 47 5 47 10 0 6 -4 10 -10 10 -5 0 -10 19 -10 43 1
37 2 40 14 25 18 -24 23 -23 28 7 5 25 4 25 -64 25 -66 0 -69 -1 -66 -22z"/>
<path d="M1888 3198 c7 -7 12 -28 12 -48 0 -20 -5 -41 -12 -48 -9 -9 -5 -12
21 -12 29 0 32 2 26 23 -6 21 -6 21 14 -3 l21 -25 20 25 c11 14 20 20 20 15 0
-6 -5 -16 -12 -23 -9 -9 -1 -12 37 -12 38 0 46 3 37 12 -16 16 -16 95 1 101 6
3 -6 6 -29 6 -38 1 -42 -2 -51 -31 l-10 -33 -13 33 c-11 29 -16 32 -53 32 -32
0 -38 -3 -29 -12z"/>
<path d="M2210 3202 c0 -5 3 -12 7 -15 9 -9 8 -71 -1 -85 -5 -9 14 -12 73 -12
47 0 81 4 81 10 0 6 -4 10 -10 10 -14 0 -12 74 2 88 9 9 -6 12 -70 12 -45 0
-82 -4 -82 -8z m90 -28 c0 -8 -4 -14 -10 -14 -5 0 -10 9 -10 21 0 11 5 17 10
14 6 -3 10 -13 10 -21z m0 -54 c0 -11 -4 -20 -10 -20 -5 0 -10 9 -10 20 0 11
5 20 10 20 6 0 10 -9 10 -20z"/>
<path d="M2385 3150 l0 -60 38 0 c38 0 45 8 25 28 -7 7 -8 12 -2 12 6 0 17
-11 24 -25 10 -19 19 -24 34 -19 30 9 30 10 7 40 -25 32 -30 64 -6 44 18 -15
22 -13 27 15 2 16 -3 21 -25 23 -24 3 -30 -2 -40 -27 -15 -40 -28 -40 -17 -1
8 29 8 30 -28 30 l-37 0 0 -60z"/>
<path d="M2562 3190 c-45 -42 -21 -100 41 -100 28 0 67 38 67 67 0 49 -69 69
-108 33z m56 -44 c3 -20 0 -27 -10 -24 -7 3 -14 17 -16 32 -3 20 0 27 10 24 7
-3 14 -17 16 -32z"/>
<path d="M2999 3196 c14 -17 3 -76 -15 -76 -8 0 -14 -7 -14 -15 0 -8 7 -15 15
-15 17 0 35 39 35 76 0 13 5 24 10 24 15 0 12 -87 -2 -93 -7 -3 9 -6 37 -6 38
-1 46 2 37 11 -7 7 -12 28 -12 48 0 20 5 41 12 48 9 9 -2 12 -51 12 -52 0 -61
-2 -52 -14z"/>
<path d="M3145 3185 c-30 -29 -32 -56 -7 -78 23 -21 60 -21 86 -2 24 18 15 30
-12 16 -21 -11 -32 -6 -32 15 0 7 14 15 30 19 31 7 38 23 18 43 -19 19 -57 14
-83 -13z m50 -15 c-3 -5 -11 -10 -16 -10 -6 0 -7 5 -4 10 3 6 11 10 16 10 6 0
7 -4 4 -10z"/>
<path d="M3255 3150 l0 -60 40 0 c30 0 36 3 27 12 -14 14 -16 28 -4 28 5 0 15
-11 22 -25 14 -26 26 -30 49 -16 12 7 10 14 -8 36 -26 33 -30 65 -6 45 12 -10
19 -10 27 -2 17 17 1 42 -27 42 -20 0 -29 -7 -36 -30 -6 -16 -15 -30 -19 -30
-5 0 -5 14 0 30 8 29 8 30 -28 30 l-37 0 0 -60z"/>
<path d="M3435 3185 c-14 -13 -25 -33 -25 -44 0 -44 63 -67 103 -37 20 16 9
29 -13 16 -19 -12 -40 7 -40 36 0 24 14 32 25 14 4 -7 13 -6 26 1 16 8 18 13
8 25 -18 22 -57 17 -84 -11z"/>
<path d="M3567 3190 c-46 -36 -32 -100 21 -100 28 0 62 17 62 31 0 6 -6 6 -18
0 -13 -7 -23 -6 -30 1 -19 19 -14 26 19 33 24 5 29 11 27 28 -4 30 -47 34 -81
7z m43 -20 c0 -5 -4 -10 -10 -10 -5 0 -10 5 -10 10 0 6 5 10 10 10 6 0 10 -4
10 -10z"/>
<path d="M3668 3198 c16 -16 16 -95 0 -101 -7 -3 7 -6 31 -6 31 -1 42 3 38 12
-3 7 1 21 9 32 13 17 14 17 14 -13 0 -30 3 -32 33 -32 l33 0 -6 50 c-4 29 -2
54 4 60 7 7 -3 10 -31 10 -35 0 -40 -3 -36 -18 2 -10 -3 -25 -13 -33 -16 -13
-17 -11 -11 19 l7 32 -42 0 c-33 0 -39 -3 -30 -12z"/>
<path d="M1692 2923 c1 -37 1 -37 5 -6 3 19 11 34 21 36 12 3 10 5 -5 6 -20 1
-23 -3 -21 -36z"/>
<path d="M1742 2935 c0 -16 2 -22 5 -12 2 9 2 23 0 30 -3 6 -5 -1 -5 -18z"/>
<path d="M1783 2925 c0 -22 2 -30 4 -17 2 12 2 30 0 40 -3 9 -5 -1 -4 -23z"/>
<path d="M1840 2956 c0 -2 8 -10 18 -17 15 -13 16 -12 3 4 -13 16 -21 21 -21
13z"/>
<path d="M1951 2940 c14 -31 19 -36 19 -24 0 6 -7 19 -16 30 -14 18 -14 18 -3
-6z"/>
<path d="M2136 2947 c3 -10 9 -15 12 -12 3 3 0 11 -7 18 -10 9 -11 8 -5 -6z"/>
<path d="M1415 2930 c3 -5 8 -10 11 -10 2 0 4 5 4 10 0 6 -5 10 -11 10 -5 0
-7 -4 -4 -10z"/>
<path d="M2281 2920 c14 -31 19 -36 19 -24 0 6 -7 19 -16 30 -14 18 -14 18 -3
-6z"/>
<path d="M1910 2925 c0 -5 5 -17 10 -25 5 -8 10 -10 10 -5 0 6 -5 17 -10 25
-5 8 -10 11 -10 5z"/>
<path d="M2060 2925 c0 -5 5 -17 10 -25 5 -8 10 -10 10 -5 0 6 -5 17 -10 25
-5 8 -10 11 -10 5z"/>
<path d="M2090 2925 c0 -5 5 -17 10 -25 5 -8 10 -10 10 -5 0 6 -5 17 -10 25
-5 8 -10 11 -10 5z"/>
<path d="M1402 2785 c-2 -29 1 -35 17 -35 14 0 19 5 15 15 -4 9 0 15 10 15 9
0 19 1 23 3 4 1 10 -11 14 -28 l5 -30 20 32 c21 36 39 44 31 14 -4 -16 0 -19
25 -19 20 1 27 5 24 15 -7 18 4 16 19 -4 15 -21 48 -10 43 14 -3 15 -15 18
-71 20 -38 1 -67 -2 -67 -7 0 -6 -5 -10 -12 -10 -6 0 -8 3 -5 7 9 8 -40 33
-67 33 -18 0 -22 -6 -24 -35z"/>
<path d="M2214 2809 c-5 -9 -2 -10 9 -6 10 3 17 2 17 -2 0 -5 -6 -12 -12 -14
-10 -4 -10 -6 0 -6 6 -1 12 -5 12 -11 0 -5 -8 -7 -17 -3 -14 5 -15 3 -7 -6 21
-23 49 -9 49 24 -1 23 -6 31 -22 33 -12 2 -25 -2 -29 -9z"/>
<path d="M2705 2785 c0 -34 2 -36 30 -33 26 3 30 7 30 33 -1 26 -5 30 -30 33
-28 3 -30 1 -30 -33z m45 -15 c0 -5 -4 -10 -10 -10 -5 0 -10 5 -10 10 0 6 5
10 10 10 6 0 10 -4 10 -10z"/>
<path d="M3115 2810 c3 -5 8 -10 11 -10 2 0 4 5 4 10 0 6 -5 10 -11 10 -5 0
-7 -4 -4 -10z"/>
<path d="M3210 2785 c0 -39 24 -50 33 -15 3 11 1 20 -4 20 -4 0 -6 7 -3 15 4
9 0 15 -10 15 -12 0 -16 -10 -16 -35z"/>
<path d="M3253 2785 c3 -49 32 -49 32 0 0 26 -4 35 -17 35 -13 0 -16 -8 -15
-35z"/>
<path d="M1660 2776 c0 -23 3 -25 51 -24 53 1 73 18 50 41 -9 9 -16 9 -31 -1
-12 -7 -20 -8 -20 -2 0 5 -11 10 -25 10 -20 0 -25 -5 -25 -24z"/>
<path d="M1798 2793 c17 -7 15 -33 -2 -33 -8 0 -17 -4 -20 -9 -3 -5 15 -7 41
-6 25 2 50 10 54 17 7 10 9 10 9 1 0 -7 5 -13 10 -13 6 0 10 9 10 20 0 13 5
18 16 13 8 -3 13 -12 10 -19 -3 -8 1 -14 9 -14 8 0 15 7 15 15 0 8 5 15 10 15
6 0 10 -7 10 -15 0 -9 9 -15 23 -15 18 0 19 2 7 11 -11 8 -12 12 -2 16 28 11
8 20 -50 22 -40 1 -65 -3 -70 -11 -6 -10 -8 -10 -8 0 0 6 -6 12 -14 12 -9 0
-12 -7 -9 -20 3 -11 0 -20 -6 -20 -6 0 -11 9 -11 20 0 14 -6 20 -22 19 -13 0
-17 -3 -10 -6z"/>
<path d="M2038 2793 c6 -2 12 -13 12 -24 0 -10 6 -19 13 -19 6 0 12 11 12 25
0 20 -5 25 -25 24 -14 0 -19 -3 -12 -6z"/>
<path d="M2090 2775 c0 -23 3 -25 35 -22 45 5 53 13 20 21 -14 4 -25 11 -25
16 0 6 -7 10 -15 10 -9 0 -15 -9 -15 -25z"/>
<path d="M2145 2790 c4 -6 11 -8 16 -5 14 9 11 15 -7 15 -8 0 -12 -5 -9 -10z"/>
<path d="M2280 2775 c0 -14 5 -25 10 -25 6 0 10 5 10 10 0 6 5 10 11 10 5 0 7
-4 4 -10 -3 -5 1 -10 9 -10 10 0 16 9 16 25 0 26 -24 35 -33 13 -4 -10 -6 -10
-6 0 -2 23 -21 12 -21 -13z"/>
<path d="M2350 2775 c0 -21 5 -25 30 -25 25 0 30 4 30 25 0 21 -5 25 -30 25
-25 0 -30 -4 -30 -25z"/>
<path d="M2426 2791 c-4 -5 0 -12 6 -14 10 -4 10 -6 1 -6 -24 -2 -13 -21 12
-21 26 0 29 7 19 34 -7 17 -29 21 -38 7z"/>
<path d="M2480 2776 c0 -19 5 -23 26 -23 17 0 24 4 20 13 -7 19 4 18 19 -3 15
-21 45 -10 45 16 0 17 -6 20 -37 19 -21 -1 -41 -6 -45 -12 -5 -8 -8 -7 -8 2 0
6 -4 12 -10 12 -5 0 -10 -11 -10 -24z m95 4 c3 -5 1 -10 -4 -10 -6 0 -11 5
-11 10 0 6 2 10 4 10 3 0 8 -4 11 -10z"/>
<path d="M2605 2775 c0 -19 5 -25 21 -25 27 0 33 7 27 31 -3 11 -14 19 -27 19
-16 0 -21 -6 -21 -25z"/>
<path d="M2780 2791 c0 -5 6 -12 13 -14 10 -4 10 -6 0 -6 -24 -2 -13 -21 11
-21 19 0 22 4 18 25 -3 16 -11 25 -23 25 -11 0 -19 -4 -19 -9z"/>
<path d="M2840 2785 c-6 -8 -9 -19 -5 -25 8 -13 32 -13 40 0 4 6 3 10 -2 9
-22 -4 -25 2 -7 16 16 12 16 14 3 15 -9 0 -22 -7 -29 -15z"/>
<path d="M2890 2775 c0 -14 5 -25 10 -25 6 0 10 5 10 10 0 6 5 10 11 10 5 0 7
-4 4 -10 -4 -6 5 -10 19 -10 14 0 26 5 26 10 0 6 -6 9 -12 8 -7 -2 -12 5 -12
15 2 19 -22 23 -29 5 -4 -10 -6 -10 -6 0 -2 23 -21 12 -21 -13z"/>
<path d="M2978 2793 c6 -2 12 -13 12 -24 0 -10 5 -19 10 -19 6 0 10 11 10 25
0 19 -5 25 -22 24 -13 0 -17 -3 -10 -6z"/>
<path d="M3028 2775 c5 -27 17 -33 25 -12 4 10 6 10 6 0 2 -24 21 -13 21 12 0
26 -15 34 -23 13 -4 -10 -6 -10 -6 0 -1 6 -7 12 -15 12 -9 0 -12 -8 -8 -25z"/>
<path d="M3100 2775 c0 -26 15 -34 23 -12 4 10 6 10 6 0 2 -25 26 -13 26 12 0
26 -20 34 -28 13 -4 -10 -6 -10 -6 0 -2 23 -21 12 -21 -13z"/>
<path d="M3300 2775 c0 -15 6 -25 15 -25 9 0 12 6 9 15 -4 8 -1 15 5 15 6 0
11 5 11 10 0 6 -9 10 -20 10 -15 0 -20 -7 -20 -25z"/>
<path d="M3352 2788 c-15 -18 1 -41 24 -36 23 4 26 41 3 46 -9 1 -21 -3 -27
-10z m28 -14 c0 -8 -5 -12 -10 -9 -6 4 -8 11 -5 16 9 14 15 11 15 -7z"/>
<path d="M3410 2765 c0 -41 3 -42 33 -15 12 12 23 16 25 10 2 -5 13 -10 25
-10 18 0 19 2 7 10 -13 9 -13 11 0 19 8 6 11 13 7 18 -4 4 -16 2 -27 -5 -12
-7 -21 -8 -25 -2 -3 6 -15 10 -26 10 -15 0 -19 -7 -19 -35z"/>
<path d="M3528 2775 c4 -23 30 -34 44 -19 13 13 -6 44 -27 44 -18 0 -21 -4
-17 -25z"/>
<path d="M3588 2775 c5 -27 17 -33 25 -12 4 10 6 10 6 0 1 -7 7 -13 15 -13 9
0 12 7 9 20 -3 11 0 20 6 20 6 0 11 -7 11 -15 0 -8 5 -15 10 -15 6 0 10 9 10
20 0 15 -7 20 -29 20 -16 0 -32 -6 -34 -12 -4 -10 -6 -10 -6 0 -1 6 -7 12 -15
12 -9 0 -12 -8 -8 -25z"/>
<path d="M3690 2775 c0 -14 5 -25 10 -25 6 0 10 11 10 25 0 14 -4 25 -10 25
-5 0 -10 -11 -10 -25z"/>
<path d="M2026 2765 c-3 -8 -1 -15 4 -15 6 0 10 7 10 15 0 8 -2 15 -4 15 -2 0
-6 -7 -10 -15z"/>
<path d="M1322 2635 c0 -16 2 -22 5 -12 2 9 2 23 0 30 -3 6 -5 -1 -5 -18z"/>
<path d="M1490 2651 c0 -6 4 -13 10 -16 6 -3 7 1 4 9 -7 18 -14 21 -14 7z"/>
<path d="M1526 2643 c-6 -14 -5 -15 5 -6 7 7 10 15 7 18 -3 3 -9 -2 -12 -12z"/>
<path d="M1585 2650 c-3 -5 -1 -10 4 -10 6 0 11 5 11 10 0 6 -2 10 -4 10 -3 0
-8 -4 -11 -10z"/>
<path d="M1657 2653 c-4 -3 -7 -11 -7 -17 0 -6 5 -5 12 2 6 6 9 14 7 17 -3 3
-9 2 -12 -2z"/>
<path d="M2065 2650 c-3 -5 -1 -10 4 -10 6 0 11 5 11 10 0 6 -2 10 -4 10 -3 0
-8 -4 -11 -10z"/>
<path d="M2161 2644 c0 -11 3 -14 6 -6 3 7 2 16 -1 19 -3 4 -6 -2 -5 -13z"/>
<path d="M2391 2644 c0 -11 3 -14 6 -6 3 7 2 16 -1 19 -3 4 -6 -2 -5 -13z"/>
<path d="M2427 2653 c-4 -3 -7 -11 -7 -17 0 -6 5 -5 12 2 6 6 9 14 7 17 -3 3
-9 2 -12 -2z"/>
<path d="M1435 2620 c-3 -5 -1 -10 4 -10 6 0 11 5 11 10 0 6 -2 10 -4 10 -3 0
-8 -4 -11 -10z"/>
<path d="M1555 2620 c-3 -5 -1 -10 4 -10 6 0 11 5 11 10 0 6 -2 10 -4 10 -3 0
-8 -4 -11 -10z"/>
<path d="M2035 2620 c-3 -5 -1 -10 4 -10 6 0 11 5 11 10 0 6 -2 10 -4 10 -3 0
-8 -4 -11 -10z"/>
<path d="M1381 2604 c0 -11 3 -14 6 -6 3 7 2 16 -1 19 -3 4 -6 -2 -5 -13z"/>
<path d="M1791 2524 c0 -11 3 -14 6 -6 3 7 2 16 -1 19 -3 4 -6 -2 -5 -13z"/>
<path d="M1441 2504 c0 -11 3 -14 6 -6 3 7 2 16 -1 19 -3 4 -6 -2 -5 -13z"/>
<path d="M1585 2510 c-3 -5 -1 -10 4 -10 6 0 11 5 11 10 0 6 -2 10 -4 10 -3 0
-8 -4 -11 -10z"/>
<path d="M1610 2511 c0 -6 4 -13 10 -16 6 -3 7 1 4 9 -7 18 -14 21 -14 7z"/>
<path d="M1821 2504 c0 -11 3 -14 6 -6 3 7 2 16 -1 19 -3 4 -6 -2 -5 -13z"/>
<path d="M1851 2504 c0 -11 3 -14 6 -6 3 7 2 16 -1 19 -3 4 -6 -2 -5 -13z"/>
<path d="M2051 2500 c14 -31 19 -36 19 -24 0 6 -7 19 -16 30 -14 18 -14 18 -3
-6z"/>
<path d="M3930 2499 c0 -5 5 -7 10 -4 6 3 10 8 10 11 0 2 -4 4 -10 4 -5 0 -10
-5 -10 -11z"/>
<path d="M1746 2483 c-6 -14 -5 -15 5 -6 7 7 10 15 7 18 -3 3 -9 -2 -12 -12z"/>
<path d="M2270 2496 c0 -2 8 -10 18 -17 15 -13 16 -12 3 4 -13 16 -21 21 -21
13z"/>
<path d="M1555 2480 c-3 -5 -1 -10 4 -10 6 0 11 5 11 10 0 6 -2 10 -4 10 -3 0
-8 -4 -11 -10z"/>
<path d="M1992 2470 c0 -14 2 -19 5 -12 2 6 2 18 0 25 -3 6 -5 1 -5 -13z"/>
<path d="M1901 2464 c0 -11 3 -14 6 -6 3 7 2 16 -1 19 -3 4 -6 -2 -5 -13z"/>
<path d="M2220 2391 c0 -5 5 -13 10 -16 6 -3 10 -2 10 4 0 5 -4 13 -10 16 -5
3 -10 2 -10 -4z"/>
<path d="M2180 2351 c0 -6 4 -13 10 -16 6 -3 7 1 4 9 -7 18 -14 21 -14 7z"/>
<path d="M1086 2045 c4 -8 8 -15 10 -15 2 0 4 7 4 15 0 8 -4 15 -10 15 -5 0
-7 -7 -4 -15z"/>
<path d="M1040 2029 c0 -5 5 -7 10 -4 6 3 10 8 10 11 0 2 -4 4 -10 4 -5 0 -10
-5 -10 -11z"/>
<path d="M2710 1931 c0 -5 9 -7 20 -4 11 3 20 7 20 9 0 2 -9 4 -20 4 -11 0
-20 -4 -20 -9z"/>
<path d="M2765 1930 c-3 -5 -1 -10 4 -10 6 0 11 5 11 10 0 6 -2 10 -4 10 -3 0
-8 -4 -11 -10z"/>
<path d="M1066 1883 c-6 -14 -5 -15 5 -6 7 7 10 15 7 18 -3 3 -9 -2 -12 -12z"/>
<path d="M1161 1884 c0 -11 3 -14 6 -6 3 7 2 16 -1 19 -3 4 -6 -2 -5 -13z"/>
<path d="M2876 1885 c-9 -26 -7 -32 5 -12 6 10 9 21 6 23 -2 3 -7 -2 -11 -11z"/>
<path d="M1290 1866 c0 -8 4 -17 9 -20 5 -4 7 3 4 14 -6 23 -13 26 -13 6z"/>
<path d="M1190 1861 c0 -6 4 -13 10 -16 6 -3 7 1 4 9 -7 18 -14 21 -14 7z"/>
<path d="M1361 1854 c0 -11 3 -14 6 -6 3 7 2 16 -1 19 -3 4 -6 -2 -5 -13z"/>
<path d="M1100 1781 c0 -5 5 -13 10 -16 6 -3 10 -2 10 4 0 5 -4 13 -10 16 -5
3 -10 2 -10 -4z"/>
<path d="M1141 1774 c0 -11 3 -14 6 -6 3 7 2 16 -1 19 -3 4 -6 -2 -5 -13z"/>
<path d="M1243 1775 c0 -8 4 -12 9 -9 4 3 8 9 8 15 0 5 -4 9 -8 9 -5 0 -9 -7
-9 -15z"/>
<path d="M1301 1774 c0 -11 3 -14 6 -6 3 7 2 16 -1 19 -3 4 -6 -2 -5 -13z"/>
<path d="M1919 1583 c-11 -3 -15 -12 -11 -29 3 -19 1 -23 -12 -18 -9 3 -16 1
-16 -4 0 -7 41 -11 110 -11 96 -1 110 1 110 16 0 15 2 15 14 -2 16 -22 49 -13
44 12 -2 12 -15 18 -45 20 -38 2 -41 1 -37 -20 4 -21 4 -21 -6 -2 -14 26 -90
33 -90 9 0 -9 -6 -14 -12 -12 -7 3 -13 13 -13 23 0 20 -11 25 -36 18z m111
-43 c0 -5 -4 -10 -10 -10 -5 0 -10 5 -10 10 0 6 5 10 10 10 6 0 10 -4 10 -10z"/>
<path d="M2610 1580 c-9 -6 -9 -9 -1 -15 7 -4 9 -16 5 -27 -5 -16 -2 -19 13
-16 12 3 17 11 16 26 -2 12 2 22 7 22 6 0 10 -11 10 -25 0 -14 6 -25 13 -25 9
0 12 11 9 33 -3 27 -8 32 -32 33 -16 1 -34 -2 -40 -6z"/>
<path d="M3076 1583 c-10 -11 -6 -24 5 -17 8 5 8 1 0 -14 -16 -30 -15 -31 30
-29 31 1 45 7 56 24 9 13 19 23 24 23 5 0 2 -11 -7 -25 l-16 -25 67 0 c56 0
66 3 61 15 -3 8 -1 15 4 15 6 0 10 5 10 10 0 6 -10 10 -23 10 -13 0 -28 5 -35
12 -8 8 -15 8 -26 -1 -10 -8 -16 -9 -21 -1 -4 6 -12 7 -24 0 -11 -5 -22 -5
-27 0 -11 11 -26 2 -43 -25 -12 -20 -12 -19 -6 1 5 21 -16 40 -29 27z m74 -29
c0 -8 -4 -12 -10 -9 -5 3 -10 10 -10 16 0 5 5 9 10 9 6 0 10 -7 10 -16z m82
-6 c-6 -6 -15 -8 -19 -4 -4 4 -1 11 7 16 19 12 27 3 12 -12z"/>
<path d="M3370 1542 l0 -42 355 0 355 0 0 35 0 35 -248 0 c-137 0 -297 3 -355
7 l-107 6 0 -41z"/>
<path d="M1838 1545 c-4 -17 -1 -25 8 -25 8 0 14 7 14 15 0 8 5 15 11 15 5 0
7 5 4 10 -12 19 -33 10 -37 -15z"/>
<path d="M2170 1546 c0 -22 4 -25 41 -24 30 0 39 4 35 14 -3 8 -1 14 4 14 6 0
10 -7 10 -15 0 -9 9 -15 24 -15 13 0 31 -2 39 -5 10 -4 14 2 14 25 0 31 -1 31
-51 29 -28 -1 -57 -6 -63 -12 -9 -6 -13 -6 -13 2 0 6 -9 11 -20 11 -15 0 -20
-7 -20 -24z"/>
<path d="M2350 1555 c-13 -16 -6 -35 14 -35 8 0 14 11 14 25 0 28 -10 32 -28
10z"/>
<path d="M2390 1545 c0 -20 5 -25 24 -25 13 0 27 6 29 13 4 10 6 10 6 0 1 -7
8 -13 17 -13 10 0 14 6 11 15 -4 8 -2 17 3 20 6 4 10 -3 10 -14 0 -16 6 -21
26 -21 19 0 25 4 20 15 -3 8 -1 15 4 15 6 0 10 5 10 10 0 14 -84 12 -98 -2 -9
-9 -12 -9 -12 0 0 7 -11 12 -25 12 -20 0 -25 -5 -25 -25z"/>
<path d="M2727 1563 c-4 -3 -7 -15 -7 -25 0 -15 8 -18 50 -18 45 0 50 2 51 23
1 20 2 20 6 2 10 -45 13 -51 23 -35 5 8 21 14 36 15 19 0 28 6 30 20 3 18 -3
20 -73 23 -65 3 -75 1 -70 -13 4 -8 2 -15 -2 -15 -5 0 -11 7 -15 15 -6 16 -18
19 -29 8z"/>
<path d="M2944 1554 c3 -9 6 -20 6 -25 0 -5 18 -9 40 -9 36 0 40 2 40 26 0 21
-4 25 -22 22 -16 -2 -22 -9 -20 -20 2 -10 -2 -18 -8 -18 -5 0 -10 9 -10 20 0
12 -7 20 -16 20 -11 0 -14 -5 -10 -16z"/>
<path d="M2550 1524 c0 -8 5 -12 10 -9 6 3 10 10 10 16 0 5 -4 9 -10 9 -5 0
-10 -7 -10 -16z"/>
<path d="M3310 1530 c0 -5 5 -10 10 -10 6 0 10 5 10 10 0 6 -4 10 -10 10 -5 0
-10 -4 -10 -10z"/>
</g>
</svg>
